<?xml version="1.0" standalone="no"?>
<!DOCTYPE svg PUBLIC "-//W3C//DTD SVG 20010904//EN"
 "http://www.w3.org/TR/2001/REC-SVG-20010904/DTD/svg10.dtd">
<svg version="1.0" xmlns="http://www.w3.org/2000/svg"
 width="7730.000000pt" height="7730.000000pt" viewBox="0 0 7730.000000 7730.000000"
 preserveAspectRatio="xMidYMid meet">

<g transform="translate(0.000000,7730.000000) scale(0.100000,-0.100000)"
fill="#000000" stroke="none">
<path d="M20695 53429 c-55 -3 -170 -7 -255 -8 -336 -2 -595 -62 -875 -201
-444 -221 -727 -571 -827 -1023 l-23 -102 0 -15660 c0 -12362 3 -15675 12
-15731 88 -506 445 -912 983 -1119 192 -75 395 -112 690 -127 475 -24 324 -31
3720 172 4053 241 6213 370 7810 466 696 41 2572 153 4170 248 1598 96 2907
172 2908 170 2 -1 -154 -777 -347 -1722 -196 -960 -356 -1764 -361 -1820 -16
-170 11 -379 72 -552 155 -439 530 -850 982 -1077 121 -61 4073 -1611 4300
-1687 374 -125 824 -216 1201 -243 61 -4 252 -8 425 -7 306 1 341 3 1200 78
487 42 2356 202 4154 356 1798 154 3287 285 3310 291 106 29 223 113 288 206
39 58 73 152 87 248 7 46 25 106 42 141 33 69 59 176 59 244 0 71 -26 172 -60
241 -40 79 -137 176 -210 212 -30 15 -680 232 -1445 482 -764 250 -1426 469
-1470 486 -523 205 -974 640 -1195 1154 -93 216 -104 258 -245 950 -52 253
-133 649 -180 880 -48 231 -95 463 -105 515 -11 52 -51 250 -90 440 -120 583
-162 792 -158 795 2 2 122 11 268 19 146 9 569 34 940 56 371 21 745 44 830
50 85 5 727 44 1425 85 699 42 1486 89 1750 105 264 16 481 27 482 26 2 -1 7
-70 13 -152 48 -722 51 -1552 8 -2566 -19 -473 7 -776 128 -1448 18 -103 90
-430 139 -635 237 -991 714 -2444 1152 -3509 52 -127 101 -242 107 -256 7 -14
22 -45 33 -70 51 -114 99 -214 123 -252 l27 -43 99 -11 c178 -19 433 7 661 67
100 27 124 37 156 68 175 166 471 899 681 1684 145 544 242 1095 277 1564 15
215 7 728 -15 878 -93 642 -121 1350 -96 2435 17 716 65 2030 81 2210 12 143
26 240 34 248 5 6 1887 121 1893 116 2 -1 25 -105 52 -231 450 -2126 1235
-4116 2345 -5938 269 -442 688 -1053 972 -1418 253 -323 542 -654 653 -747 73
-61 182 -90 335 -90 119 0 187 14 269 54 64 31 145 111 177 174 l24 47 -1 540
c0 297 -6 677 -12 845 -85 2146 -277 4189 -567 6046 -31 198 -142 847 -161
942 -6 29 -4 32 19 32 14 0 171 9 349 20 178 11 820 49 1428 85 608 36 1146
71 1195 79 198 33 393 110 564 223 111 74 292 250 371 361 115 162 204 368
247 575 16 77 17 861 21 13367 1 7307 0 13304 -3 13327 -4 30 -10 40 -20 37
-9 -4 -16 4 -21 23 -3 15 -8 35 -10 44 -7 25 7 51 23 44 13 -4 14 2 8 42 -8
54 -48 198 -70 250 -12 28 -18 34 -27 25 -17 -17 -25 -15 -31 9 -5 17 -2 20
14 16 25 -7 24 4 -7 66 -33 65 -30 63 -50 46 -16 -13 -16 -12 -4 8 12 18 11
25 -4 47 -14 22 -20 25 -36 16 -11 -6 -20 -7 -20 -2 0 5 -13 12 -29 15 -32 7
-32 0 -5 87 3 9 -9 28 -27 45 -18 17 -29 24 -25 18 5 -9 2 -11 -9 -7 -9 4 -14
12 -11 19 3 8 -4 10 -21 7 -23 -4 -24 -3 -14 17 7 12 8 27 4 34 -14 24 -127
122 -197 171 -58 42 -71 48 -87 38 -26 -17 -49 -15 -26 2 9 7 17 16 17 19 0
12 -62 39 -75 33 -9 -3 -12 0 -9 8 11 27 -221 110 -396 142 -49 9 -4035 185
-11605 514 -6341 275 -11651 504 -11800 510 -148 6 -733 31 -1300 55 -566 25
-1046 45 -1065 45 l-35 0 3 -330 3 -330 -161 0 -160 0 0 40 c0 33 -3 40 -19
40 -16 0 -21 -8 -24 -42 -2 -24 -4 98 -5 270 -2 306 -2 312 18 312 11 0 20 7
20 15 0 8 -7 15 -16 15 -9 0 -14 6 -11 14 4 10 -19 14 -111 19 -137 8 -3380
149 -4747 207 -517 22 -994 44 -1060 49 -272 22 -8061 361 -8400 366 -344 5
-2588 102 -2650 115 -27 5 -225 17 -440 25 -214 9 -961 40 -1660 70 -1254 53
-1454 58 -1650 44z m10283 -1177 c22 -2 22 -3 22 -164 0 -126 -3 -159 -12
-150 -8 8 -45 12 -100 12 l-88 0 0 148 c0 82 2 151 5 154 4 4 111 4 173 0z
m3252 -138 c0 -2 -7 -4 -15 -4 -8 0 -15 4 -15 10 0 5 7 7 15 4 8 -4 15 -8 15
-10z m-3256 -229 c-7 -16 -44 -21 -44 -6 0 8 16 16 42 20 4 0 5 -6 2 -14z
m156 -9 c0 -11 -19 -15 -25 -6 -3 5 1 10 9 10 9 0 16 -2 16 -4z m1329 -45 c9
-6 10 -11 2 -15 -13 -8 -31 1 -31 15 0 11 11 11 29 0z m6584 -258 c-13 -2 -35
-2 -50 0 -16 2 -5 4 22 4 28 0 40 -2 28 -4z m21774 -690 c-2 -32 -3 -6 -3 57
0 63 1 89 3 58 2 -32 2 -84 0 -115z m133 124 l0 -34 250 -1 c158 -1 250 2 250
8 0 6 14 10 30 10 17 0 30 -4 30 -10 0 -6 50 -10 130 -10 l130 0 0 -107 c0
-60 -4 -114 -9 -121 -6 -10 -47 -12 -199 -6 l-191 7 -3 41 -3 41 -60 2 c-33 1
-140 2 -237 2 l-178 1 0 105 0 105 30 0 c27 0 30 -3 30 -33z m153 6 c-7 -2
-21 -2 -30 0 -10 3 -4 5 12 5 17 0 24 -2 18 -5z m315 -10 c-10 -2 -26 -2 -35
0 -10 3 -2 5 17 5 19 0 27 -2 18 -5z m412 -143 c0 -91 -3 -110 -15 -110 -12 0
-15 19 -15 110 0 91 3 110 15 110 12 0 15 -19 15 -110z m207 -57 c-2 -32 -3
-6 -3 57 0 63 1 89 3 58 2 -32 2 -84 0 -115z m-37512 -303 c1029 -33 1888 -61
1910 -62 38 -3 43 -7 112 -103 167 -228 601 -891 591 -901 -2 -1 -1054 29
-2338 67 -1284 38 -2345 69 -2357 69 l-23 0 0 500 0 501 118 -6 c64 -3 959
-33 1987 -65z m16620 -535 c1452 -47 2839 -92 3082 -100 244 -8 472 -15 508
-15 l65 0 0 -335 c0 -184 -3 -335 -7 -335 -39 -2 -6444 192 -6490 196 l-63 6
0 340 0 340 133 -7 c72 -3 1320 -44 2772 -90z m17462 -775 c67 -40 87 -80 197
-387 30 -83 75 -193 99 -245 149 -307 405 -525 697 -592 41 -9 84 -19 95 -22
11 -2 128 -9 260 -14 135 -6 271 -16 310 -25 238 -50 406 -235 520 -570 76
-224 104 -509 67 -685 -49 -237 -170 -441 -448 -760 -204 -233 -231 -281 -254
-438 -9 -61 -9 -97 -1 -144 10 -60 10 -64 -12 -81 -108 -88 -324 -89 -504 -3
-107 51 -203 158 -311 347 -26 45 -59 91 -73 101 -35 26 -95 39 -147 32 l-44
-7 25 50 c86 169 37 368 -105 427 -46 20 -79 20 -123 2 -41 -18 -65 -62 -90
-166 -33 -138 -65 -224 -153 -405 -81 -167 -87 -185 -91 -252 -2 -55 1 -79 13
-98 18 -27 193 -118 348 -181 54 -21 96 -43 95 -48 -4 -11 -190 -91 -286 -122
-126 -41 -238 -27 -371 49 -76 42 -171 140 -202 207 -55 116 -63 167 -63 400
0 143 4 235 13 275 21 91 54 205 61 205 3 0 7 64 8 143 3 201 55 474 147 762
l25 79 -60 91 c-72 109 -168 301 -203 409 -56 170 -70 265 -70 476 1 154 5
219 22 310 36 198 90 365 170 525 140 282 320 428 439 355z m-13557 -270
c2456 -72 4511 -133 4568 -136 l102 -6 0 -323 0 -323 -107 5 c-60 2 -2090 58
-4513 123 -2423 66 -4474 122 -4557 126 l-153 6 0 334 0 333 98 -5 c53 -3
2106 -63 4562 -134z m-19117 -1 l517 -13 0 -494 0 -495 -192 7 c-106 3 -317 9
-468 12 -151 4 -297 8 -325 9 -27 2 -69 3 -92 4 l-43 1 0 496 0 495 43 -5 c23
-3 275 -11 560 -17z m1528 -44 c211 -8 1473 -44 2804 -80 1331 -36 2453 -68
2493 -71 l72 -6 0 -474 0 -474 -87 0 c-49 0 -1080 25 -2293 55 -1213 30 -2342
57 -2510 60 -398 6 -728 14 -917 21 l-153 6 0 489 0 489 103 0 c57 0 277 -7
488 -15z m16099 -825 c4887 -130 7530 -200 7605 -200 l85 0 0 -331 0 -331
-187 7 c-187 6 -8126 200 -8633 210 -146 3 -302 8 -347 11 l-83 6 0 334 0 334
33 0 c17 0 705 -18 1527 -40z m-17575 -545 c50 -2 174 -5 278 -6 l187 -2 0
-493 0 -494 -262 5 c-145 3 -315 8 -378 10 -63 2 -197 4 -297 4 l-183 1 0 496
0 496 283 -7 c155 -3 323 -8 372 -10z m1745 -41 c168 -3 315 -7 327 -10 18 -3
32 -36 97 -231 106 -321 216 -699 216 -741 0 -11 -30 -12 -162 -8 -90 3 -298
8 -463 11 -165 3 -429 8 -587 11 l-288 7 0 490 0 490 278 -6 c152 -4 414 -9
582 -13z m15460 -325 c470 -10 2468 -57 4440 -104 1972 -47 3593 -85 3603 -85
16 0 17 -22 17 -327 l0 -328 -117 3 c-65 1 -419 9 -788 17 -4825 102 -8322
178 -8332 181 -10 3 -13 78 -13 332 0 181 3 332 7 336 4 4 79 4 168 1 88 -3
545 -15 1015 -26z m-17005 -1050 c127 -1 238 -5 248 -7 16 -4 17 -36 17 -493
l0 -489 -292 5 c-161 3 -372 7 -468 10 -96 3 -217 5 -267 5 l-93 0 0 488 c0
269 2 491 4 493 2 2 143 1 313 -2 169 -4 412 -8 538 -10z m1820 -34 c182 -3
362 -8 402 -11 l71 -6 41 -211 c64 -333 127 -744 117 -755 -3 -3 -402 1 -886
8 l-880 13 0 490 0 490 403 -6 c221 -4 551 -9 732 -12z m-2190 -1382 c3179
-48 7008 -110 7013 -112 1 0 2 -215 2 -476 l0 -475 -142 0 c-79 0 -858 9
-1733 20 -874 11 -1873 22 -2220 25 -857 7 -5569 63 -5982 71 l-333 6 0 498 0
498 233 -5 c127 -2 1551 -25 3162 -50z m17480 -293 c1447 -22 2851 -42 3120
-46 270 -4 501 -7 515 -8 l25 -1 0 -330 0 -330 -350 3 c-192 2 -847 9 -1455
17 -608 8 -1888 24 -2845 35 -957 11 -1782 23 -1832 26 l-93 6 0 334 0 334
143 0 c78 0 1326 -18 2772 -40z m13255 -750 c0 -5 -6 -10 -14 -10 -7 0 -19 -7
-26 -15 -13 -16 -30 -20 -30 -7 0 4 15 15 33 24 40 21 37 20 37 8z m-30402
-497 l302 -6 0 -489 0 -488 -228 0 c-126 0 -378 3 -560 7 l-332 6 0 489 0 488
258 0 c142 0 394 -3 560 -7z m1795 -19 l789 -6 -7 -142 c-14 -325 -49 -824
-57 -831 -3 -2 -1790 12 -1795 14 -2 1 -3 222 -3 492 l0 491 143 -6 c78 -3
497 -9 930 -12z m18487 -609 c2087 -19 3825 -35 3863 -35 l67 0 0 -320 0 -320
-127 0 c-373 -1 -7794 51 -7990 56 l-233 6 0 328 0 327 313 -4 c171 -2 2020
-19 4107 -38z m-20193 -785 l213 0 0 -490 0 -490 -560 0 -560 0 0 497 0 496
347 -6 c190 -4 442 -7 560 -7z m2384 -19 c7 -6 -42 -406 -86 -691 -14 -96 -29
-197 -32 -223 -3 -26 -9 -50 -14 -52 -4 -3 -370 -2 -813 2 l-806 6 0 488 0
488 873 -6 c479 -3 875 -8 878 -12z m12994 -77 c1287 -8 2530 -14 2763 -14
l422 0 0 -331 0 -331 -772 6 c-425 3 -1430 8 -2233 11 -803 3 -1931 8 -2507
11 l-1048 7 0 333 0 333 518 -5 c284 -3 1570 -12 2857 -20z m12995 -744 c0
-40 -27 -87 -53 -92 -22 -4 -25 -2 -21 20 10 53 33 92 53 92 14 0 21 -6 21
-20z m-76 -158 c-7 -31 -21 -49 -30 -40 -9 10 16 79 27 72 5 -3 6 -17 3 -32z
m-7438 -22 c386 -63 838 -265 1159 -520 105 -83 222 -197 350 -341 l104 -116
-27 -22 c-14 -11 -30 -21 -34 -21 -5 0 -23 -16 -40 -36 -18 -20 -55 -46 -82
-59 -32 -14 -72 -45 -108 -83 -31 -34 -69 -64 -83 -68 -16 -4 -25 -13 -25 -25
0 -10 -7 -19 -15 -19 -8 0 -15 -4 -15 -9 0 -5 -10 -13 -22 -17 -12 -4 -31 -17
-41 -30 -10 -13 -25 -24 -32 -24 -8 0 -20 -8 -27 -17 -7 -10 -30 -26 -50 -35
-21 -10 -38 -24 -38 -33 0 -8 -4 -15 -9 -15 -5 0 -11 -7 -13 -15 -2 -9 -99 55
-293 196 -334 242 -353 258 -576 476 l-167 163 -3029 0 c-1666 0 -3159 3
-3316 7 l-287 6 0 334 0 333 748 0 c411 0 1836 -5 3167 -10 2076 -8 2426 -8
2465 5 64 20 196 18 336 -5z m7329 -320 c3 -5 1 -10 -4 -10 -6 0 -11 5 -11 10
0 6 2 10 4 10 3 0 8 -4 11 -10z m-27975 -560 l0 -490 -560 0 -560 0 0 490 0
490 560 0 560 0 0 -490z m1970 482 c0 -15 -66 -367 -126 -674 l-58 -298 -683
0 -683 0 0 490 0 490 775 0 c426 0 775 -4 775 -8z m25053 -1099 c-7 -2 -19 -2
-25 0 -7 3 -2 5 12 5 14 0 19 -2 13 -5z m4890 -145 c-56 -150 -139 -341 -227
-523 -564 -1166 -1500 -2071 -2585 -2500 -122 -47 -322 -115 -343 -115 -22 0
-4 19 25 26 51 11 274 88 368 127 328 136 693 348 994 577 756 574 1329 1348
1715 2318 75 186 116 256 53 90z m5382 -99 c-26 -96 -100 -365 -165 -599 -134
-480 -205 -749 -315 -1190 -42 -168 -116 -447 -165 -620 -110 -389 -160 -582
-199 -770 -33 -164 -70 -394 -75 -478 -27 -431 -29 -528 -17 -749 6 -125 14
-247 18 -270 7 -51 -12 -60 -21 -10 -18 106 -28 358 -23 602 11 515 73 870
287 1625 44 157 119 438 166 625 123 485 209 811 318 1200 52 187 122 444 156
570 68 257 70 265 77 249 2 -7 -17 -90 -42 -185z m-35605 -81 c0 -7 -44 -227
-99 -488 -71 -345 -102 -476 -112 -477 -8 -1 -249 -4 -536 -6 l-523 -4 0 488
0 489 348 3 c191 1 476 3 635 5 224 1 287 -1 287 -10z m-1690 -488 l0 -490
-560 0 -560 0 0 490 0 490 560 0 560 0 0 -490z m21969 248 c65 -134 142 -281
169 -328 27 -47 48 -87 46 -89 -4 -4 -5062 -30 -6071 -30 l-563 -1 0 330 c0
283 2 331 15 336 8 3 1285 9 2837 13 1553 4 2964 8 3135 9 l313 2 119 -242z
m411 -721 c19 -28 33 -55 32 -59 -1 -5 2 -8 6 -8 5 0 30 -30 57 -67 75 -104
222 -290 292 -369 35 -39 63 -76 63 -81 0 -16 -441 -21 -3705 -43 -1617 -11
-3082 -21 -3255 -22 l-315 -2 -3 332 c-2 261 0 333 10 337 15 5 4628 31 5898
33 l885 2 35 -53z m-20996 -554 c-19 -97 -120 -691 -140 -825 l-6 -38 -409 0
-409 0 0 490 0 490 493 0 494 0 -23 -117z m-1384 -383 l0 -490 -267 0 c-148 0
-400 -3 -560 -7 l-293 -6 0 496 0 497 560 0 560 0 0 -490z m17730 -279 c0
-279 -2 -330 -15 -334 -8 -4 -150 -6 -317 -7 -167 0 -494 -3 -728 -6 -1334
-18 -4856 -50 -4863 -45 -4 4 -6 158 -5 342 l3 334 390 3 c215 2 1317 11 2450
21 1133 10 2291 19 2573 20 l512 1 0 -329z m-13390 -591 c0 -5 -5 -10 -11 -10
-5 0 -7 5 -4 10 3 6 8 10 11 10 2 0 4 -4 4 -10z m-1780 -20 c0 -5 -11 -12 -25
-16 -14 -3 -25 -9 -25 -13 0 -4 -18 -16 -40 -27 -22 -10 -40 -22 -40 -26 0 -5
-5 -8 -11 -8 -13 0 -137 -58 -153 -72 -6 -4 -22 -17 -35 -28 -13 -11 -35 -20
-48 -20 -12 0 -23 -4 -23 -10 0 -5 -11 -10 -25 -10 -14 0 -25 -6 -25 -13 0
-12 -24 -28 -62 -43 -10 -3 -18 -10 -18 -15 0 -5 -7 -9 -15 -9 -9 0 -18 -7
-21 -15 -4 -9 -19 -15 -39 -15 -18 0 -38 -7 -45 -15 -7 -8 -19 -15 -26 -15 -8
0 -14 -4 -14 -10 0 -5 -7 -10 -15 -10 -8 0 -15 -4 -15 -8 0 -9 -98 -52 -118
-52 -6 0 -12 -4 -12 -10 0 -5 -7 -10 -15 -10 -8 0 -15 -4 -15 -10 0 -5 -11
-12 -25 -16 -14 -3 -25 -9 -25 -13 0 -4 -18 -16 -40 -27 -22 -10 -40 -22 -40
-26 0 -5 -5 -8 -11 -8 -13 0 -137 -58 -153 -72 -6 -4 -22 -17 -35 -28 -13 -11
-35 -20 -48 -20 -12 0 -23 -4 -23 -10 0 -5 -11 -10 -25 -10 -15 0 -25 -6 -25
-14 0 -7 -8 -17 -17 -20 -39 -15 -63 -31 -59 -41 2 -5 9 -9 16 -7 11 2 11 0 2
-11 -8 -9 -11 -42 -8 -95 l4 -80 -162 -6 c-143 -5 -4765 -67 -4958 -66 l-78 0
0 495 0 494 33 5 c68 10 5181 56 5187 46 3 -5 11 -5 20 0 8 5 135 9 283 10
221 0 267 -3 267 -14 0 -8 7 -16 15 -20 9 -3 15 0 15 8 0 16 56 22 213 25 77
2 113 -2 125 -11 13 -11 14 -11 7 1 -6 11 -4 13 8 8 9 -3 19 -2 22 3 8 13 395
13 395 0z m-183 -146 c-3 -3 -12 -4 -19 -1 -8 3 -5 6 6 6 11 1 17 -2 13 -5z
m-880 -480 c-3 -3 -12 -4 -19 -1 -8 3 -5 6 6 6 11 1 17 -2 13 -5z m22413 -503
l0 -319 -112 -6 c-62 -3 -1870 -32 -4018 -65 -2148 -33 -3976 -63 -4062 -66
l-158 -5 0 330 c0 181 3 330 8 331 9 1 8040 116 8215 118 l127 1 0 -319z
m-22710 269 c-8 -5 -17 -7 -19 -4 -3 3 1 9 9 14 8 5 17 7 19 4 3 -3 -1 -9 -9
-14z m27 -2 c-3 -8 -6 -5 -6 6 -1 11 2 17 5 13 3 -3 4 -12 1 -19z m-17 -93 c0
-7 -30 -13 -34 -7 -3 4 4 9 15 9 10 1 19 0 19 -2z m157 -7 c2 6 10 12 16 12 6
0 4 -7 -5 -16 -17 -17 -38 -12 -38 9 0 7 4 6 11 -3 8 -11 12 -12 16 -2z
m36554 -281 c-10 -9 -11 -8 -5 6 3 10 9 15 12 12 3 -3 0 -11 -7 -18z m-36691
-349 c56 -274 184 -605 319 -823 l49 -80 -276 -6 c-153 -4 -418 -9 -589 -13
l-313 -6 0 490 0 490 218 2 c119 2 298 4 398 6 l181 2 13 -62z m-1230 -448 l0
-490 -147 0 c-82 -1 -204 -3 -273 -5 -69 -2 -254 -7 -412 -10 l-288 -5 0 495
0 495 333 3 c182 1 434 3 560 5 l227 2 0 -490z m23912 11 c-1 -179 -3 -325 -5
-327 -1 -1 -155 -4 -342 -8 -187 -4 -428 -9 -535 -11 -107 -3 -559 -12 -1005
-20 -445 -8 -922 -17 -1060 -20 -137 -3 -1211 -23 -2385 -45 -1174 -22 -2333
-44 -2575 -49 -242 -5 -443 -7 -447 -4 -5 2 -8 153 -8 334 0 255 3 331 13 334
6 2 1274 24 2817 49 1543 25 2902 48 3020 51 118 2 397 7 620 10 223 3 477 7
565 10 88 2 392 7 675 11 283 4 517 8 520 11 2 2 34 3 70 1 l65 -3 -3 -324z
m1858 -861 c0 -248 -3 -322 -12 -325 -7 -2 -134 -6 -283 -9 -148 -4 -1924 -42
-3945 -86 -2021 -43 -3753 -81 -3847 -84 l-173 -6 0 334 0 334 133 6 c72 3
868 20 1767 37 899 17 2585 50 3745 74 1161 23 2224 43 2363 44 l252 1 0 -320z
m-18130 -3904 l0 -3984 -52 0 c-29 0 -79 -4 -110 -8 l-58 -7 0 3961 0 3961 43
12 c33 8 89 24 175 48 1 1 2 -1792 2 -3983z m-5592 3798 c263 -227 627 -408
1002 -498 415 -100 920 -112 1525 -36 317 40 714 115 1140 215 195 46 588 144
648 161 16 5 17 -15 17 -315 l0 -320 -42 -5 c-24 -3 -909 -23 -1968 -46 -1059
-22 -1997 -43 -2085 -46 -88 -2 -486 -11 -885 -19 -399 -8 -782 -17 -852 -20
l-128 -5 0 490 0 490 128 2 c70 1 152 3 182 3 30 1 262 5 515 9 253 4 461 9
463 11 2 1 59 3 128 4 l125 1 87 -76z m-2048 -452 l0 -489 -322 -7 c-178 -3
-430 -9 -560 -13 l-238 -6 0 491 0 492 88 1 c48 1 218 5 377 8 160 3 372 7
473 9 l182 2 0 -488z m25768 -331 c1 -173 -1 -318 -6 -323 -9 -9 -284 -17
-1782 -53 -333 -8 -695 -17 -805 -20 -110 -3 -1021 -26 -2025 -50 -1004 -25
-2183 -54 -2620 -65 -437 -11 -846 -20 -907 -20 l-113 0 0 333 0 333 1463 32
c4008 90 5788 130 6222 142 154 4 345 7 425 6 l145 -1 3 -314z m-19388 -921
l0 -480 -57 0 c-32 0 -1329 -34 -2882 -75 -1553 -41 -2869 -75 -2923 -75 l-98
0 0 485 0 485 58 1 c31 0 1326 31 2877 68 1551 38 2866 69 2923 70 l102 1 0
-480z m-6380 -160 l0 -490 -87 0 c-83 0 -756 -16 -945 -23 l-88 -3 0 487 0
486 48 6 c26 4 229 9 452 13 223 4 407 8 409 10 2 2 51 4 108 4 l103 0 0 -490z
m18350 -15 l0 -335 -87 0 c-71 0 -989 -27 -1528 -44 -66 -3 -232 -7 -370 -10
-137 -4 -299 -9 -360 -11 -60 -3 -211 -7 -335 -10 -124 -3 -297 -8 -385 -10
-188 -7 -382 -12 -705 -20 -129 -3 -289 -8 -355 -10 -269 -10 -440 -15 -620
-20 -104 -3 -507 -14 -895 -25 -388 -11 -756 -20 -817 -20 l-113 0 0 345 0
345 68 0 c37 0 670 15 1407 34 737 18 1349 33 1360 33 11 0 119 3 240 7 121 3
321 8 445 11 391 8 700 15 850 20 80 2 300 7 490 11 274 5 1505 36 1673 43
l37 1 0 -335z m-1246 -641 c3 -9 3 -21 -1 -27 -3 -7 -2 -9 2 -4 10 8 46 -63
39 -75 -3 -5 0 -8 6 -8 7 0 10 -6 7 -14 -3 -8 1 -17 9 -20 8 -3 13 -9 12 -13
0 -4 8 -28 20 -53 11 -24 18 -48 16 -52 -3 -4 -1 -8 4 -8 9 0 31 -44 36 -71 1
-8 10 -28 19 -45 9 -17 13 -34 10 -38 -4 -3 -1 -6 5 -6 6 0 9 -7 6 -15 -4 -8
-1 -15 5 -15 18 0 13 -27 -6 -34 -10 -3 -29 -13 -43 -21 -24 -15 -24 -15 20
-13 31 2 44 7 42 16 -1 8 2 11 7 8 5 -3 7 -16 3 -28 -4 -16 -2 -19 8 -13 10 6
11 1 6 -21 -5 -21 -4 -25 4 -14 5 8 10 12 10 8 0 -3 3 -14 7 -24 5 -13 3 -15
-7 -9 -10 6 -12 4 -7 -8 6 -15 -6 -17 -119 -17 -122 0 -124 0 -114 20 7 14 7
20 0 20 -5 0 -10 -4 -10 -10 0 -5 -7 -10 -15 -10 -8 0 -15 -6 -15 -13 0 -15
-158 -22 -473 -22 -92 0 -167 -3 -167 -7 0 -5 -72 -8 -161 -8 -125 0 -159 3
-154 13 4 6 0 4 -8 -6 -12 -14 -29 -17 -110 -15 -80 2 -93 4 -79 15 10 7 12
13 5 13 -6 0 -19 -7 -28 -16 -13 -14 -50 -17 -231 -20 -119 -2 -220 -7 -225
-10 -5 -3 -67 -5 -137 -4 -70 0 -239 -4 -377 -9 -137 -5 -344 -12 -460 -15
-115 -3 -281 -9 -367 -12 l-158 -7 0 331 0 330 113 6 c61 4 246 8 409 9 164 1
298 5 298 8 0 6 303 15 808 25 133 3 248 7 255 9 7 3 91 4 189 2 97 -1 174 1
172 5 -7 11 350 14 358 3 5 -6 8 -5 8 2 0 9 43 13 163 15 89 2 212 4 274 5 93
2 112 0 117 -13z m-10724 -563 l0 -479 -82 -6 c-46 -3 -180 -8 -298 -11 -118
-3 -280 -8 -360 -11 -80 -2 -665 -20 -1300 -39 -635 -19 -1211 -37 -1280 -40
-69 -2 -217 -7 -330 -10 -113 -3 -259 -8 -325 -10 -66 -3 -214 -7 -330 -10
-115 -3 -264 -8 -330 -10 -66 -3 -203 -7 -305 -10 -344 -10 -834 -25 -985 -30
-273 -9 -448 -15 -630 -20 -99 -3 -247 -7 -330 -10 -82 -3 -229 -7 -325 -10
-96 -3 -236 -7 -310 -10 -138 -5 -338 -11 -650 -20 -96 -3 -245 -8 -330 -10
-539 -18 -1768 -55 -1832 -55 l-78 0 0 494 0 494 63 6 c34 3 913 28 1952 56
2075 56 2159 58 2355 65 74 3 263 7 420 10 157 4 296 8 310 10 14 2 198 7 410
11 212 3 387 8 390 9 3 2 151 6 330 9 179 4 357 8 395 11 39 3 183 7 320 10
138 3 315 7 395 10 80 3 237 7 350 10 113 3 439 12 725 20 286 8 624 17 750
21 127 3 419 12 650 19 231 6 459 13 508 14 l87 1 0 -479z m18420 -414 l0
-325 -102 -6 c-57 -3 -184 -8 -283 -11 -99 -3 -236 -8 -305 -10 -69 -2 -199
-7 -290 -10 -160 -5 -268 -9 -570 -20 -80 -2 -228 -7 -330 -10 -102 -3 -237
-7 -300 -10 -63 -3 -191 -7 -285 -10 -93 -3 -228 -7 -300 -10 -71 -3 -211 -7
-310 -10 -167 -5 -263 -8 -600 -20 -71 -3 -202 -7 -290 -10 -88 -3 -218 -8
-290 -10 -71 -3 -470 -16 -885 -30 -415 -13 -820 -27 -900 -30 -271 -10 -1055
-38 -1075 -38 -18 0 -182 -5 -700 -22 -93 -3 -366 -12 -605 -20 -239 -9 -524
-18 -632 -21 l-198 -6 0 336 c0 185 1 336 3 336 29 3 392 16 1042 36 446 13
882 27 970 29 88 3 1098 34 2245 70 1982 61 2228 69 2570 80 136 4 217 7 680
20 102 3 228 8 280 10 52 2 201 7 330 10 129 3 276 8 325 10 50 3 207 7 350
11 143 3 261 7 262 8 1 0 45 2 97 4 l96 4 0 -325z m0 -901 l0 -326 -77 -1
c-43 -1 -91 -2 -108 -4 -16 -1 -129 -5 -250 -9 -121 -4 -247 -9 -280 -11 -33
-2 -152 -7 -265 -10 -113 -3 -241 -8 -285 -10 -44 -2 -172 -7 -285 -10 -113
-3 -232 -8 -265 -10 -33 -3 -154 -7 -270 -10 -115 -3 -248 -8 -295 -10 -47 -2
-164 -7 -260 -10 -96 -3 -220 -8 -275 -10 -55 -3 -235 -10 -400 -15 -335 -11
-525 -18 -695 -25 -63 -3 -189 -7 -280 -10 -91 -3 -219 -7 -285 -10 -112 -4
-209 -8 -555 -20 -147 -6 -319 -12 -530 -20 -74 -3 -322 -12 -550 -20 -228 -8
-845 -31 -1370 -50 -525 -19 -1092 -39 -1260 -45 -168 -6 -329 -12 -358 -13
l-52 -2 2 339 3 339 123 3 c68 2 187 5 265 8 78 3 230 8 337 11 107 2 245 7
305 10 61 3 187 7 280 10 94 3 233 7 310 10 77 3 210 7 295 10 85 3 223 8 305
10 83 3 481 17 885 30 404 13 803 27 885 30 130 5 653 22 1180 40 88 3 286 9
440 15 154 5 352 12 440 15 88 3 216 7 285 10 69 3 197 7 285 10 88 3 286 10
440 15 375 13 535 18 885 30 162 5 356 12 430 15 74 2 236 8 360 11 124 4 226
7 227 8 1 1 65 3 143 5 l140 3 0 -326z m-18420 -190 l0 -475 -52 -5 c-29 -3
-1295 -48 -2813 -101 -1518 -53 -2835 -99 -2927 -102 l-168 -6 0 486 c0 457 1
487 18 488 529 19 5710 187 5805 188 l137 1 0 -474z m-6380 -216 l0 -490 -36
0 c-60 0 -873 -29 -981 -35 l-103 -6 0 491 0 490 23 1 c62 2 1018 36 1055 38
l42 1 0 -490z m27854 -245 c-7 -110 -13 -240 -13 -290 -1 -49 -4 -106 -7 -126
l-6 -36 -202 -7 c-110 -4 -235 -9 -276 -11 -41 -2 -147 -7 -235 -10 -88 -3
-212 -7 -275 -10 -63 -3 -234 -10 -380 -15 -146 -6 -314 -12 -375 -15 -60 -2
-175 -7 -255 -10 -80 -3 -194 -8 -255 -10 -60 -3 -227 -10 -370 -15 -390 -15
-518 -20 -645 -25 -63 -3 -347 -14 -630 -25 -283 -11 -569 -22 -635 -25 -66
-3 -586 -23 -1155 -45 -569 -22 -1316 -52 -1660 -65 -344 -14 -644 -25 -667
-25 l-43 0 0 329 0 329 83 6 c45 3 888 35 1872 71 985 36 1844 67 1910 70 66
3 548 21 1070 40 523 19 1011 37 1085 40 149 6 587 22 830 30 85 3 209 7 275
10 66 3 183 7 260 10 336 13 398 15 545 21 85 3 157 8 159 10 8 7 8 -1 -5
-201z m-21474 -925 l0 -480 -54 0 c-30 0 -449 -16 -933 -35 -2019 -80 -4933
-195 -4952 -195 -21 0 -21 1 -21 485 0 267 1 485 3 486 5 2 5806 217 5880 218
l77 1 0 -480z m-6380 -240 l0 -490 -42 0 c-24 0 -254 -9 -513 -20 -258 -11
-491 -20 -517 -20 l-48 0 0 490 0 490 83 1 c45 0 280 9 522 18 242 10 457 19
478 20 l37 1 0 -490z m27832 153 c3 -175 4 -319 4 -319 -1 -1 -1790 -76 -3976
-168 -2186 -91 -3999 -167 -4028 -169 l-52 -4 2 326 3 326 4015 161 c2208 89
4018 162 4021 163 4 0 9 -142 11 -316z m-21454 -1290 l-3 -478 -63 0 c-34 0
-62 -3 -62 -7 0 -3 -49 -7 -109 -7 -105 -1 -110 -1 -106 19 2 11 -1 20 -7 20
-5 0 -8 -6 -5 -14 9 -23 -14 -34 -73 -34 -30 0 -413 -16 -850 -36 -437 -20
-1621 -72 -2630 -115 -1009 -44 -1883 -83 -1942 -86 l-108 -7 0 489 0 488
1568 64 c1173 48 4084 168 4365 180 l27 1 -2 -477z m-6378 -273 l0 -490 -29 0
c-42 0 -931 -38 -1018 -44 l-73 -4 0 489 c0 269 3 489 8 490 5 0 885 39 1080
48 l32 1 0 -490z m24048 -3567 c-32 -2 -84 -2 -115 0 -32 2 -6 3 57 3 63 0 89
-1 58 -3z"/>
<path d="M28140 36040 c-9 -16 -8 -20 5 -20 8 0 15 9 15 20 0 11 -2 20 -5 20
-2 0 -9 -9 -15 -20z"/>
<path d="M28620 36030 c-9 -6 -10 -10 -3 -10 6 0 15 5 18 10 8 12 4 12 -15 0z"/>
<path d="M28063 35993 c-18 -7 -16 -23 2 -23 8 0 15 7 15 15 0 8 -1 15 -2 14
-2 0 -9 -3 -15 -6z"/>
<path d="M27975 35950 c-3 -5 1 -10 9 -10 9 0 16 5 16 10 0 6 -4 10 -9 10 -6
0 -13 -4 -16 -10z"/>
<path d="M27815 35870 c-3 -5 1 -10 9 -10 9 0 16 5 16 10 0 6 -4 10 -9 10 -6
0 -13 -4 -16 -10z"/>
<path d="M27740 35795 c-10 -12 -10 -15 4 -15 9 0 16 7 16 15 0 8 -2 15 -4 15
-2 0 -9 -7 -16 -15z"/>
<path d="M27667 35769 c4 -13 8 -18 11 -10 2 7 -1 18 -6 23 -8 8 -9 4 -5 -13z"/>
<path d="M27632 35745 c-1 -12 -6 -25 -11 -30 -5 -6 -6 -28 -1 -50 l8 -40 1
38 c0 21 5 36 10 32 5 -3 13 0 17 6 4 7 3 9 -4 5 -7 -4 -12 6 -15 26 -2 18 -5
24 -5 13z"/>
<path d="M27620 35583 c0 -24 2 -43 4 -43 8 0 12 60 4 72 -4 8 -8 -4 -8 -29z"/>
<path d="M27667 35613 c-2 -5 0 -21 4 -38 7 -29 7 -29 8 8 1 35 -3 46 -12 30z"/>
<path d="M34020 25349 c0 -5 -5 -7 -12 -3 -7 4 -8 3 -4 -4 10 -16 23 -15 30 3
3 8 1 15 -4 15 -6 0 -10 -5 -10 -11z"/>
<path d="M43548 30482 c4 -11 7 -12 10 -4 3 10 7 10 20 0 14 -10 15 -10 5 2
-18 20 -43 22 -35 2z"/>
<path d="M43530 30446 c0 -2 9 -6 20 -9 11 -3 18 -1 14 4 -5 9 -34 13 -34 5z"/>
<path d="M43528 30423 c7 -3 16 -2 19 1 4 3 -2 6 -13 5 -11 0 -14 -3 -6 -6z"/>
<path d="M43610 30370 c-6 -11 -8 -20 -6 -20 3 0 10 9 16 20 6 11 8 20 6 20
-3 0 -10 -9 -16 -20z"/>
<path d="M43620 30322 c6 -12 8 -28 4 -34 -4 -7 -3 -8 4 -4 16 10 15 18 -4 42
-14 18 -15 18 -4 -4z"/>
<path d="M43620 30004 c-24 -13 -24 -14 -4 -14 12 0 24 7 28 15 3 8 4 15 3 14
-1 -1 -13 -7 -27 -15z"/>
<path d="M43128 29933 c7 -3 16 -2 19 1 4 3 -2 6 -13 5 -11 0 -14 -3 -6 -6z"/>
<path d="M42247 29919 c7 -7 15 -10 18 -7 3 3 -2 9 -12 12 -14 6 -15 5 -6 -5z"/>
<path d="M42598 29923 c7 -3 16 -2 19 1 4 3 -2 6 -13 5 -11 0 -14 -3 -6 -6z"/>
<path d="M64555 12775 c-138 -25 -247 -76 -304 -140 -58 -66 -36 -128 74 -218
125 -101 455 -239 680 -283 134 -27 322 -24 397 5 121 47 175 140 165 285 -10
142 -43 203 -122 225 -87 24 -325 8 -553 -36 -45 -9 -85 -13 -88 -10 -4 3 -9
47 -12 97 l-5 90 -81 -1 c-44 0 -112 -7 -151 -14z"/>
<path d="M56595 12071 c-124 -21 -216 -60 -259 -111 -14 -17 -26 -40 -26 -51
0 -89 152 -238 380 -371 283 -166 592 -252 750 -208 139 38 214 178 190 351
-13 91 -26 115 -74 138 -78 38 -203 52 -441 50 l-220 -2 3 49 c1 27 5 70 8 95
5 45 4 47 -23 52 -51 11 -237 16 -288 8z"/>
</g>
</svg>
