<?xml version="1.0" encoding="UTF-8"?>
<!DOCTYPE svg PUBLIC "-//W3C//DTD SVG 1.1//EN" "http://www.w3.org/Graphics/SVG/1.1/DTD/svg11.dtd">
<svg xmlns="http://www.w3.org/2000/svg" version="1.1" width="553px" height="368px" style="shape-rendering:geometricPrecision; text-rendering:geometricPrecision; image-rendering:optimizeQuality; fill-rule:evenodd; clip-rule:evenodd" xmlns:xlink="http://www.w3.org/1999/xlink">
<g><path style="opacity:0.965" fill="#e6e7e8" d="M 201.5,-0.5 C 204.5,-0.5 207.5,-0.5 210.5,-0.5C 217.922,5.22403 218.256,11.3907 211.5,18C 200.014,20.8509 195.181,16.3509 197,4.5C 198.025,2.31305 199.525,0.646381 201.5,-0.5 Z"/></g>
<g><path style="opacity:0.996" fill="#ceec60" d="M 516.5,21.5 C 515.839,22.7175 515.172,24.0508 514.5,25.5C 513.571,24.3112 513.238,22.9778 513.5,21.5C 511.283,18.0493 509.616,14.2159 508.5,10C 508.862,8.77531 509.362,7.60864 510,6.5C 512.512,10.1899 514.512,14.1899 516,18.5C 519.842,14.3316 524.342,11.9983 529.5,11.5C 526.881,17.1254 522.548,20.4587 516.5,21.5 Z"/></g>
<g><path style="opacity:1" fill="#000000" d="M 104.5,44.5 C 100.854,43.7166 97.1875,43.5499 93.5,44C 91.3593,50.1407 87.1926,54.3074 81,56.5C 80.3333,58.1667 80.3333,59.8333 81,61.5C 82.986,63.8056 84.1527,66.4723 84.5,69.5C 83.7251,73.7096 82.3917,77.7096 80.5,81.5C 78.9557,81.2969 77.6223,80.6302 76.5,79.5C 75.0986,80.5207 73.7653,81.5207 72.5,82.5C 66.9883,80.2648 61.3216,79.4315 55.5,80C 53.1064,78.0478 51.6064,75.5478 51,72.5C 49.1267,73.0891 47.46,72.4224 46,70.5C 41.4855,59.9284 39.8189,48.9284 41,37.5C 42.365,35.1402 44.365,33.4735 47,32.5C 49.3393,23.8236 54.8393,17.9903 63.5,15C 70.2703,14.3524 76.9369,13.1857 83.5,11.5C 83.3118,13.1033 83.8118,14.4366 85,15.5C 85.3333,15.1667 85.6667,14.8333 86,14.5C 88.5597,16.2907 91.3931,17.4574 94.5,18C 96.9686,20.4411 98.802,23.2744 100,26.5C 101.011,25.6634 102.178,25.33 103.5,25.5C 103.343,26.8734 103.51,28.2068 104,29.5C 106.907,25.2194 108.74,25.5527 109.5,30.5C 108.985,34.2424 108.152,37.9091 107,41.5C 106.623,42.9423 105.79,43.9423 104.5,44.5 Z"/></g>
<g><path style="opacity:1" fill="#020101" d="M 513.5,21.5 C 513.238,22.9778 513.571,24.3112 514.5,25.5C 515.172,24.0508 515.839,22.7175 516.5,21.5C 528.298,20.4832 537.132,25.1499 543,35.5C 544.872,50.6549 543.039,65.3216 537.5,79.5C 539.278,83.1154 541.278,86.6154 543.5,90C 541.378,94.2878 539.045,98.4544 536.5,102.5C 538.682,107.193 541.849,111.193 546,114.5C 547.145,119.083 547.811,123.749 548,128.5C 549.221,129.774 550.054,131.274 550.5,133C 548.727,135.384 546.727,137.551 544.5,139.5C 543.178,139.67 542.011,139.337 541,138.5C 540.649,133.802 540.149,129.136 539.5,124.5C 539.5,123.833 539.167,123.5 538.5,123.5C 537.696,121.811 536.696,120.145 535.5,118.5C 532.308,117.134 528.974,116.301 525.5,116C 524.951,112.619 522.951,110.786 519.5,110.5C 518.791,107.616 517.791,104.949 516.5,102.5C 516.291,101.078 515.791,99.745 515,98.5C 514.764,100.119 513.931,101.119 512.5,101.5C 510.156,100.653 508.656,98.9861 508,96.5C 507.539,91.8159 507.705,87.1493 508.5,82.5C 510.108,79.7366 510.941,76.7366 511,73.5C 508.379,74.9915 505.545,75.6582 502.5,75.5C 502.007,77.8056 501.674,80.139 501.5,82.5C 500.5,83.8333 499.5,85.1667 498.5,86.5C 498.167,86.5 497.833,86.5 497.5,86.5C 498.354,84.965 498.354,83.6316 497.5,82.5C 499.023,80.4143 498.69,78.7476 496.5,77.5C 496.611,76.8826 496.944,76.3826 497.5,76C 495.612,72.3792 494.112,68.5459 493,64.5C 489.159,58.8223 485.826,52.8223 483,46.5C 480.647,51.6942 478.147,51.6942 475.5,46.5C 472.956,45.5742 470.456,44.5742 468,43.5C 467.065,45.9088 466.565,48.4088 466.5,51C 467.193,55.5769 468.193,60.0769 469.5,64.5C 468.883,64.3893 468.383,64.056 468,63.5C 465.294,71.5391 459.961,76.8724 452,79.5C 451.5,79.1667 451,78.8333 450.5,78.5C 459.095,71.6456 463.762,62.6456 464.5,51.5C 462.404,41.7945 463.737,32.6278 468.5,24C 469.833,23.6667 471.167,23.3333 472.5,23C 475.167,20 477.833,17 480.5,14C 493.081,10.1227 504.081,12.6227 513.5,21.5 Z M 508.5,82.5 C 506.167,82.5 503.833,82.5 501.5,82.5C 501.674,80.139 502.007,77.8056 502.5,75.5C 505.545,75.6582 508.379,74.9915 511,73.5C 510.941,76.7366 510.108,79.7366 508.5,82.5 Z"/></g>
<g><path style="opacity:0.993" fill="#e5e6e7" d="M 145.5,23.5 C 168.502,23.3334 191.502,23.5 214.5,24C 218.085,26.5281 218.418,29.5281 215.5,33C 191.833,33.6667 168.167,33.6667 144.5,33C 140.383,29.3165 140.716,26.1498 145.5,23.5 Z"/></g>
<g><path style="opacity:0.927" fill="#e5e6e8" d="M 143.5,38.5 C 185.168,38.3333 226.835,38.5 268.5,39C 271.25,42.0124 270.917,44.679 267.5,47C 226.5,47.6667 185.5,47.6667 144.5,47C 140.868,44.6529 140.535,41.8196 143.5,38.5 Z"/></g>
<g><path style="opacity:0.971" fill="#fab3b3" d="M 104.5,44.5 C 108.08,61.8409 101.746,74.0075 85.5,81C 83.8659,81.4935 82.1992,81.6602 80.5,81.5C 82.3917,77.7096 83.7251,73.7096 84.5,69.5C 84.1527,66.4723 82.986,63.8056 81,61.5C 80.3333,59.8333 80.3333,58.1667 81,56.5C 87.1926,54.3074 91.3593,50.1407 93.5,44C 97.1875,43.5499 100.854,43.7166 104.5,44.5 Z"/></g>
<g><path style="opacity:0.98" fill="#9e5f68" d="M 496.5,77.5 C 484.428,79.0553 475.428,74.722 469.5,64.5C 468.193,60.0769 467.193,55.5769 466.5,51C 466.565,48.4088 467.065,45.9088 468,43.5C 470.456,44.5742 472.956,45.5742 475.5,46.5C 478.147,51.6942 480.647,51.6942 483,46.5C 485.826,52.8223 489.159,58.8223 493,64.5C 494.112,68.5459 495.612,72.3792 497.5,76C 496.944,76.3826 496.611,76.8826 496.5,77.5 Z"/></g>
<g><path style="opacity:0.96" fill="#feb6b6" d="M 149.5,52.5 C 150.85,55.5721 152.183,58.5721 153.5,61.5C 152.596,67.2362 152.596,72.9028 153.5,78.5C 148.579,80.3627 143.579,82.0294 138.5,83.5C 137.458,76.0627 135.791,68.7294 133.5,61.5C 133.84,57.3011 135.173,53.4678 137.5,50C 142.378,47.3794 146.378,48.2128 149.5,52.5 Z"/></g>
<g><path style="opacity:0.926" fill="#e6e3de" d="M 149.5,52.5 C 189.337,52.1681 229.004,52.5014 268.5,53.5C 249.497,53.3334 230.497,53.5001 211.5,54C 208.933,56.8216 209.266,59.3216 212.5,61.5C 192.833,61.5 173.167,61.5 153.5,61.5C 152.183,58.5721 150.85,55.5721 149.5,52.5 Z"/></g>
<g><path style="opacity:1" fill="#d3f063" d="M 268.5,53.5 C 269.038,55.1172 269.371,56.7839 269.5,58.5C 269.423,59.7498 268.756,60.5831 267.5,61C 249.17,61.4999 230.836,61.6666 212.5,61.5C 209.266,59.3216 208.933,56.8216 211.5,54C 230.497,53.5001 249.497,53.3334 268.5,53.5 Z"/></g>
<g><path style="opacity:0.251" fill="#e5d9ce" d="M 268.5,53.5 C 270.597,54.8786 270.93,56.5453 269.5,58.5C 269.371,56.7839 269.038,55.1172 268.5,53.5 Z"/></g>
<g><path style="opacity:1" fill="#925961" d="M 499.5,57.5 C 507.432,61.5775 508.599,67.2442 503,74.5C 502.554,68.668 501.387,63.0013 499.5,57.5 Z"/></g>
<g><path style="opacity:0.999" fill="#000000" d="M 226.5,72.5 C 230.459,77.6972 234.459,83.0305 238.5,88.5C 235.996,88.2477 233.33,88.2477 230.5,88.5C 235.319,108.001 246.985,121.501 265.5,129C 268.757,130.043 272.09,130.543 275.5,130.5C 277.804,119.001 284.804,114.501 296.5,117C 307.641,122.769 310.141,131.269 304,142.5C 294.795,150.729 285.962,150.396 277.5,141.5C 266.878,150.136 259.878,161.136 256.5,174.5C 259.33,174.752 261.996,174.752 264.5,174.5C 260.339,179.486 256.673,184.819 253.5,190.5C 251.169,184.338 248.169,178.504 244.5,173C 247.361,172.915 250.028,173.749 252.5,175.5C 256.366,160.247 264.366,147.747 276.5,138C 275.62,136.644 275.286,135.144 275.5,133.5C 258.423,131.921 245.257,123.921 236,109.5C 232.023,102.569 229.023,95.2356 227,87.5C 224.607,89.3669 222.107,90.0335 219.5,89.5C 222.675,84.1542 225.008,78.4875 226.5,72.5 Z"/></g>
<g><path style="opacity:1" fill="#d2f162" d="M 153.5,78.5 C 154.833,78.5 156.167,78.5 157.5,78.5C 159.648,111.48 161.148,144.48 162,177.5C 159.189,183.823 154.355,186.323 147.5,185C 142.59,182.143 137.59,179.476 132.5,177C 128,173.833 124.167,170 121,165.5C 119.834,177.15 119.501,188.817 120,200.5C 122.549,219.507 125.049,238.507 127.5,257.5C 123.758,263.305 119.758,268.971 115.5,274.5C 112.167,275.833 109.833,278.167 108.5,281.5C 97.3896,290.378 84.7229,295.878 70.5,298C 60.5,298.667 50.5,298.667 40.5,298C 34.855,290.796 28.1883,289.629 20.5,294.5C 20.8821,291.354 20.8821,288.354 20.5,285.5C 22.2833,277.705 23.6166,269.705 24.5,261.5C 21.7212,261.279 19.0545,261.612 16.5,262.5C 14.8868,262.056 13.7202,261.056 13,259.5C 9.17961,229.582 4.67961,199.915 -0.5,170.5C -0.5,163.833 -0.5,157.167 -0.5,150.5C 1.02793,136.744 5.19459,123.744 12,111.5C 21.8344,104.668 32.6677,100.168 44.5,98C 48.4537,93.2577 52.287,88.4244 56,83.5C 67.0889,84.6042 78.2556,85.4375 89.5,86C 92.7494,90.4968 95.7494,95.1635 98.5,100C 115.234,103.099 127.734,111.932 136,126.5C 136.62,115.491 136.453,104.491 135.5,93.5C 135.667,90.8333 135.833,88.1667 136,85.5C 136.995,84.9341 137.828,84.2674 138.5,83.5C 143.579,82.0294 148.579,80.3627 153.5,78.5 Z"/></g>
<g><path style="opacity:0.66" fill="#d29b9b" d="M 80.5,81.5 C 78.0521,82.4731 75.3854,82.8064 72.5,82.5C 73.7653,81.5207 75.0986,80.5207 76.5,79.5C 77.6223,80.6302 78.9557,81.2969 80.5,81.5 Z"/></g>
<g><path style="opacity:0.999" fill="#d2f062" d="M 497.5,82.5 C 498.354,83.6316 498.354,84.965 497.5,86.5C 495.478,91.0306 492.478,94.864 488.5,98C 493.696,95.96 497.029,92.1267 498.5,86.5C 499.5,85.1667 500.5,83.8333 501.5,82.5C 503.833,82.5 506.167,82.5 508.5,82.5C 507.705,87.1493 507.539,91.8159 508,96.5C 508.656,98.9861 510.156,100.653 512.5,101.5C 513.568,102.434 514.901,102.768 516.5,102.5C 517.791,104.949 518.791,107.616 519.5,110.5C 522.951,110.786 524.951,112.619 525.5,116C 528.974,116.301 532.308,117.134 535.5,118.5C 536.696,120.145 537.696,121.811 538.5,123.5C 539.167,123.5 539.5,123.833 539.5,124.5C 540.149,129.136 540.649,133.802 541,138.5C 542.011,139.337 543.178,139.67 544.5,139.5C 546.879,149.69 549.546,159.69 552.5,169.5C 552.5,172.5 552.5,175.5 552.5,178.5C 550.691,181.139 548.358,183.306 545.5,185C 536.497,184.448 527.497,184.615 518.5,185.5C 516.492,194.195 514.492,202.862 512.5,211.5C 512.44,212.043 512.107,212.376 511.5,212.5C 509.083,210.893 506.416,209.893 503.5,209.5C 497.096,205.303 490.096,202.137 482.5,200C 472.504,196.818 462.504,194.985 452.5,194.5C 450.5,189.5 448.5,184.5 446.5,179.5C 451.37,179.968 456.036,179.302 460.5,177.5C 463.167,173.833 465.833,170.167 468.5,166.5C 464.059,165.746 459.725,164.579 455.5,163C 447.864,161.653 442.197,164.32 438.5,171C 440.54,173.185 441.874,175.685 442.5,178.5C 432.094,186.731 422.094,195.564 412.5,205C 411.552,205.483 410.552,205.649 409.5,205.5C 409.715,203.821 409.048,202.821 407.5,202.5C 406.201,197.236 403.868,192.569 400.5,188.5C 400.901,187.009 401.068,185.342 401,183.5C 419.021,167.144 436.688,150.477 454,133.5C 460.299,118.901 467.632,104.901 476,91.5C 478.833,88.6667 481.667,85.8333 484.5,83C 488.821,82.501 493.154,82.3343 497.5,82.5 Z M 524.5,155.5 C 525.289,155.783 525.956,156.283 526.5,157C 525.184,157.528 524.517,157.028 524.5,155.5 Z"/></g>
<g><path style="opacity:1" fill="#4b784c" d="M 497.5,86.5 C 497.833,86.5 498.167,86.5 498.5,86.5C 497.029,92.1267 493.696,95.96 488.5,98C 492.478,94.864 495.478,91.0306 497.5,86.5 Z"/></g>
<g><path style="opacity:1" fill="#8e943f" d="M 516.5,102.5 C 514.901,102.768 513.568,102.434 512.5,101.5C 513.931,101.119 514.764,100.119 515,98.5C 515.791,99.745 516.291,101.078 516.5,102.5 Z"/></g>
<g><path style="opacity:0.996" fill="#a0606a" d="M 446.5,179.5 C 445.041,179.567 443.708,179.234 442.5,178.5C 441.874,175.685 440.54,173.185 438.5,171C 442.197,164.32 447.864,161.653 455.5,163C 459.725,164.579 464.059,165.746 468.5,166.5C 465.833,170.167 463.167,173.833 460.5,177.5C 456.036,179.302 451.37,179.968 446.5,179.5 Z"/></g>
<g><path style="opacity:0.969" fill="#e6e7e8" d="M 314.5,166.5 C 324.974,164.814 329.807,169.148 329,179.5C 325.599,186.283 320.433,188.116 313.5,185C 309.741,181.257 308.574,176.757 310,171.5C 311.025,169.313 312.525,167.646 314.5,166.5 Z"/></g>
<g><path style="opacity:0.96" fill="#a1626a" d="M 400.5,188.5 C 403.868,192.569 406.201,197.236 407.5,202.5C 403.03,206.138 399.03,210.305 395.5,215C 389.95,218.861 384.284,219.361 378.5,216.5C 382.558,217.308 385.224,215.808 386.5,212C 386.241,210.739 385.574,209.739 384.5,209C 381.964,208.814 379.631,208.314 377.5,207.5C 378.167,205.833 378.833,204.167 379.5,202.5C 383.693,202.638 386.027,200.638 386.5,196.5C 391.902,195.093 396.569,192.427 400.5,188.5 Z"/></g>
<g><path style="opacity:0.926" fill="#e6e6e7" d="M 386.5,196.5 C 386.027,200.638 383.693,202.638 379.5,202.5C 356.831,202.667 334.164,202.5 311.5,202C 309.987,199.084 310.32,196.418 312.5,194C 336.5,193.333 360.5,193.333 384.5,194C 385.381,194.708 386.047,195.542 386.5,196.5 Z"/></g>
<g><path style="opacity:0.99" fill="#9f6069" d="M 503.5,209.5 C 486.5,209.5 469.5,209.5 452.5,209.5C 452.5,204.5 452.5,199.5 452.5,194.5C 462.504,194.985 472.504,196.818 482.5,200C 490.096,202.137 497.096,205.303 503.5,209.5 Z"/></g>
<g><path style="opacity:0.929" fill="#e5e6e7" d="M 293.5,207.5 C 321.5,207.5 349.5,207.5 377.5,207.5C 379.631,208.314 381.964,208.814 384.5,209C 385.574,209.739 386.241,210.739 386.5,212C 385.224,215.808 382.558,217.308 378.5,216.5C 350.167,216.5 321.833,216.5 293.5,216.5C 294.582,215.406 295.248,214.073 295.5,212.5C 294.813,210.823 294.146,209.156 293.5,207.5 Z"/></g>
<g><path style="opacity:0.999" fill="#d3f166" d="M 293.5,207.5 C 294.146,209.156 294.813,210.823 295.5,212.5C 295.248,214.073 294.582,215.406 293.5,216.5C 274.497,216.667 255.497,216.5 236.5,216C 233.833,213.667 233.833,211.333 236.5,209C 255.487,207.985 274.487,207.485 293.5,207.5 Z"/></g>
<g><path style="opacity:1" fill="#000000" d="M 452.5,209.5 C 469.5,209.5 486.5,209.5 503.5,209.5C 506.416,209.893 509.083,210.893 511.5,212.5C 512.107,212.376 512.44,212.043 512.5,211.5C 525.264,236.539 532.764,263.206 535,291.5C 535.951,316.911 537.784,342.244 540.5,367.5C 527.167,367.5 513.833,367.5 500.5,367.5C 494.138,340.385 487.304,313.385 480,286.5C 473.203,311.891 466.203,337.224 459,362.5C 458.36,364.265 458.527,365.932 459.5,367.5C 447.5,367.5 435.5,367.5 423.5,367.5C 421.935,362.405 420.601,357.239 419.5,352C 422.489,324.099 425.989,296.266 430,268.5C 432.654,252.215 437.32,236.548 444,221.5C 446.61,217.258 449.443,213.258 452.5,209.5 Z"/></g>
<g><path style="opacity:0.925" fill="#e6e7e8" d="M 312.5,221.5 C 336.502,221.333 360.502,221.5 384.5,222C 387.167,224.667 387.167,227.333 384.5,230C 360.167,230.667 335.833,230.667 311.5,230C 310.041,226.929 310.374,224.096 312.5,221.5 Z"/></g>
<g><path style="opacity:1" fill="#000000" d="M 127.5,257.5 C 126.069,294.153 125.069,330.819 124.5,367.5C 108.167,367.5 91.8333,367.5 75.5,367.5C 75.1961,356.147 74.5294,344.814 73.5,333.5C 70.6544,344.728 68.3211,356.061 66.5,367.5C 49.1667,367.5 31.8333,367.5 14.5,367.5C 16.3798,343.156 18.3798,318.822 20.5,294.5C 28.1883,289.629 34.855,290.796 40.5,298C 50.5,298.667 60.5,298.667 70.5,298C 84.7229,295.878 97.3896,290.378 108.5,281.5C 111.167,279.5 113.5,277.167 115.5,274.5C 119.758,268.971 123.758,263.305 127.5,257.5 Z"/></g>
<g><path style="opacity:0.951" fill="#ffb6b6" d="M 20.5,285.5 C 19.8875,277.71 18.5542,270.043 16.5,262.5C 19.0545,261.612 21.7212,261.279 24.5,261.5C 23.6166,269.705 22.2833,277.705 20.5,285.5 Z"/></g>
<g><path style="opacity:1" fill="#7e873b" d="M 115.5,274.5 C 113.5,277.167 111.167,279.5 108.5,281.5C 109.833,278.167 112.167,275.833 115.5,274.5 Z"/></g>
</svg>
