<?xml version="1.0" encoding="UTF-8"?>
<!DOCTYPE svg PUBLIC "-//W3C//DTD SVG 1.1//EN" "http://www.w3.org/Graphics/SVG/1.1/DTD/svg11.dtd">
<svg xmlns="http://www.w3.org/2000/svg" version="1.1" width="792px" height="399px" style="shape-rendering:geometricPrecision; text-rendering:geometricPrecision; image-rendering:optimizeQuality; fill-rule:evenodd; clip-rule:evenodd" xmlns:xlink="http://www.w3.org/1999/xlink">
<g><path style="opacity:0.977" fill="#2f2e41" d="M 194.5,-0.5 C 199.833,-0.5 205.167,-0.5 210.5,-0.5C 215.048,0.978429 219.714,2.47843 224.5,4C 227.102,4.88343 229.269,6.38343 231,8.5C 231.854,12.6251 231.52,16.6251 230,20.5C 227.772,22.1134 225.272,22.78 222.5,22.5C 218.306,20.6117 214.806,21.6117 212,25.5C 211.983,29.893 211.15,34.0597 209.5,38C 205.433,40.0111 201.1,41.0111 196.5,41C 195.667,41.8333 194.833,42.6667 194,43.5C 193.501,47.1516 193.335,50.8183 193.5,54.5C 184.167,56.4268 176.667,53.4268 171,45.5C 168.452,38.2391 169.285,31.4058 173.5,25C 170.257,18.6216 171.257,12.955 176.5,8C 182.16,4.28834 188.16,1.45501 194.5,-0.5 Z"/></g>
<g><path style="opacity:0.973" fill="#2f2e41" d="M 612.5,79.5 C 623.98,75.6758 630.314,67.6758 631.5,55.5C 619.829,55.6665 608.162,55.4999 596.5,55C 594.938,46.5624 592.604,46.3957 589.5,54.5C 587.257,55.4742 584.924,55.8076 582.5,55.5C 583.663,67.6565 589.996,75.6565 601.5,79.5C 592.161,79.6665 582.827,79.4998 573.5,79C 573,78.5 572.5,78 572,77.5C 571.333,67.8333 571.333,58.1667 572,48.5C 578.656,25.4127 593.823,16.5793 617.5,22C 629.03,26.8601 636.197,35.3601 639,47.5C 639.667,57.5 639.667,67.5 639,77.5C 638.5,78 638,78.5 637.5,79C 629.173,79.4997 620.84,79.6664 612.5,79.5 Z"/></g>
<g><path style="opacity:0.955" fill="#fab5b5" d="M 222.5,22.5 C 226.002,41.4794 218.168,52.4794 199,55.5C 197.122,55.3038 195.288,54.9705 193.5,54.5C 193.335,50.8183 193.501,47.1516 194,43.5C 194.833,42.6667 195.667,41.8333 196.5,41C 201.1,41.0111 205.433,40.0111 209.5,38C 211.15,34.0597 211.983,29.893 212,25.5C 214.806,21.6117 218.306,20.6117 222.5,22.5 Z"/></g>
<g><path style="opacity:1" fill="#9e6069" d="M 612.5,79.5 C 608.833,79.5 605.167,79.5 601.5,79.5C 589.996,75.6565 583.663,67.6565 582.5,55.5C 584.924,55.8076 587.257,55.4742 589.5,54.5C 592.604,46.3957 594.938,46.5624 596.5,55C 608.162,55.4999 619.829,55.6665 631.5,55.5C 630.314,67.6758 623.98,75.6758 612.5,79.5 Z"/></g>
<g><path style="opacity:0.808" fill="#f2f2f2" d="M 397.5,54.5 C 402.708,54.369 404.375,56.7024 402.5,61.5C 400.305,62.7691 398.139,62.7691 396,61.5C 395.185,58.8018 395.685,56.4685 397.5,54.5 Z"/></g>
<g><path style="opacity:0.999" fill="#d2f163" d="M 264.5,166.5 C 262.733,171.705 259.733,176.038 255.5,179.5C 254.078,179.291 252.745,178.791 251.5,178C 245.611,172.476 239.444,167.31 233,162.5C 233.471,175.663 234.305,188.83 235.5,202C 235.722,205.148 235.055,207.981 233.5,210.5C 219.163,209.903 204.83,209.237 190.5,208.5C 189.719,203.582 189.219,198.582 189,193.5C 187.906,195.078 187.072,196.745 186.5,198.5C 185.705,201.423 184.372,204.09 182.5,206.5C 173.103,207.119 163.77,207.453 154.5,207.5C 152.162,205.96 149.495,205.294 146.5,205.5C 144.648,204.48 143.315,202.98 142.5,201C 145.203,194.019 147.203,186.852 148.5,179.5C 149.404,178.791 149.737,177.791 149.5,176.5C 148.833,176.5 148.5,176.833 148.5,177.5C 143.738,179.642 138.738,180.975 133.5,181.5C 132.496,180.317 131.662,178.984 131,177.5C 128.886,164.368 127.053,151.202 125.5,138C 125.767,131.665 126.934,125.498 129,119.5C 138.046,103.795 147.879,88.6279 158.5,74C 164.813,70.3657 171.147,66.699 177.5,63C 192.134,57.482 206.134,58.8153 219.5,67C 222.421,70.5916 225.921,73.4249 230,75.5C 232.603,80.5593 234.603,85.8926 236,91.5C 238.484,107.256 241.484,122.923 245,138.5C 252.259,147.368 258.759,156.701 264.5,166.5 Z M 149.5,176.5 C 150.057,165.484 150.89,154.484 152,143.5C 153,141.5 154,139.5 155,137.5C 155.693,150.97 153.86,163.97 149.5,176.5 Z"/></g>
<g><path style="opacity:0.987" fill="#2f2e41" d="M 681.5,350.5 C 675.596,350.321 669.929,350.988 664.5,352.5C 660.798,352.421 657.132,352.754 653.5,353.5C 651.088,353.594 649.255,352.594 648,350.5C 637,314.167 626,277.833 615,241.5C 604.333,279.5 593.667,317.5 583,355.5C 581.745,357.594 579.912,358.594 577.5,358.5C 573.851,357.67 570.185,357.004 566.5,356.5C 570.111,310.837 573.777,265.17 577.5,219.5C 578.247,213.925 575.914,210.592 570.5,209.5C 570.337,207.143 570.503,204.81 571,202.5C 586.237,181.599 601.071,160.433 615.5,139C 611.622,134.296 606.955,130.462 601.5,127.5C 592.391,141.406 583.058,155.073 573.5,168.5C 574.54,164.22 574.706,159.887 574,155.5C 569.768,146.135 567.268,136.469 566.5,126.5C 561.511,122.507 555.844,119.84 549.5,118.5C 546.76,116.1 545.927,113.1 547,109.5C 552.249,102.004 557.249,94.3374 562,86.5C 566.574,81.85 572.074,80.35 578.5,82C 595.516,87.2534 612.849,91.2534 630.5,94C 638.61,98.0636 641.443,104.564 639,113.5C 637.414,115.67 636.08,118.004 635,120.5C 634.114,127.911 633.114,135.244 632,142.5C 642.371,153.565 650.371,166.231 656,180.5C 676.577,234.14 690.243,289.474 697,346.5C 696.5,347.667 695.667,348.5 694.5,349C 690.168,349.583 685.835,350.083 681.5,350.5 Z"/></g>
<g><path style="opacity:0.901" fill="#f2f2f2" d="M 401.5,91.5 C 410.518,94.0548 412.185,98.8881 406.5,106C 397.667,107.833 394.167,104.333 396,95.5C 397.5,93.5313 399.333,92.198 401.5,91.5 Z"/></g>
<g><path style="opacity:0.971" fill="#a06169" d="M 549.5,118.5 C 555.844,119.84 561.511,122.507 566.5,126.5C 557.831,151.004 548.665,175.337 539,199.5C 538.82,201.488 538.986,203.488 539.5,205.5C 538.229,210.089 535.562,213.423 531.5,215.5C 527.556,215.887 523.889,215.22 520.5,213.5C 518.607,210.382 517.274,207.049 516.5,203.5C 517.228,201.488 518.062,199.488 519,197.5C 521.39,196.109 523.057,194.109 524,191.5C 532.606,167.181 541.106,142.847 549.5,118.5 Z"/></g>
<g><path style="opacity:0.991" fill="#9e6069" d="M 570.5,209.5 C 567.691,215.266 563.024,217.599 556.5,216.5C 555.833,216.5 555.167,216.5 554.5,216.5C 551.232,213.905 549.232,210.572 548.5,206.5C 548.629,200.574 551.462,196.574 557,194.5C 562.329,185.682 567.829,177.015 573.5,168.5C 583.058,155.073 592.391,141.406 601.5,127.5C 606.955,130.462 611.622,134.296 615.5,139C 601.071,160.433 586.237,181.599 571,202.5C 570.503,204.81 570.337,207.143 570.5,209.5 Z"/></g>
<g><path style="opacity:0.682" fill="#f2f2f2" d="M 403.5,134.5 C 417.538,134.9 421.704,141.567 416,154.5C 408.349,160.087 401.682,159.087 396,151.5C 393.679,143.489 396.179,137.823 403.5,134.5 Z M 403.5,137.5 C 413.362,136.848 417.195,141.182 415,150.5C 407.305,157.926 401.472,156.593 397.5,146.5C 398.286,142.567 400.286,139.567 403.5,137.5 Z"/></g>
<g><path style="opacity:0.796" fill="#f2f2f2" d="M 791.5,157.5 C 791.5,159.5 791.5,161.5 791.5,163.5C 787.613,165.466 784.946,164.466 783.5,160.5C 784.946,156.534 787.613,155.534 791.5,157.5 Z"/></g>
<g><path style="opacity:0.971" fill="#feb8b7" d="M 264.5,166.5 C 269.518,172.19 274.185,178.19 278.5,184.5C 278.632,187.57 278.299,190.57 277.5,193.5C 273.27,198.468 268.27,199.468 262.5,196.5C 260.59,195.025 259.424,193.025 259,190.5C 258.731,187.873 258.564,185.54 258.5,183.5C 257.5,182.167 256.5,180.833 255.5,179.5C 259.733,176.038 262.733,171.705 264.5,166.5 Z"/></g>
<g><path style="opacity:0.91" fill="#f2f2f2" d="M 749.5,175.5 C 760.818,174.99 763.485,179.49 757.5,189C 751.031,191.211 747.031,189.044 745.5,182.5C 746.086,179.651 747.42,177.318 749.5,175.5 Z"/></g>
<g><path style="opacity:0.943" fill="#feb8b6" d="M 148.5,177.5 C 148.5,178.167 148.5,178.833 148.5,179.5C 147.203,186.852 145.203,194.019 142.5,201C 143.315,202.98 144.648,204.48 146.5,205.5C 141.928,208.261 137.428,207.928 133,204.5C 129.096,198.151 129.93,192.651 135.5,188C 134.77,185.846 134.103,183.679 133.5,181.5C 138.738,180.975 143.738,179.642 148.5,177.5 Z"/></g>
<g><path style="opacity:0.963" fill="#cccccc" d="M 258.5,183.5 C 258.564,185.54 258.731,187.873 259,190.5C 259.424,193.025 260.59,195.025 262.5,196.5C 257.408,239.937 253.574,283.604 251,327.5C 251.833,328.333 252.667,329.167 253.5,330C 352.307,338.522 451.14,346.689 550,354.5C 552.625,354.419 554.959,353.752 557,352.5C 560.73,309.991 564.563,267.491 568.5,225C 568.464,222.906 568.131,220.906 567.5,219C 563.759,217.986 560.093,217.153 556.5,216.5C 563.024,217.599 567.691,215.266 570.5,209.5C 575.914,210.592 578.247,213.925 577.5,219.5C 573.777,265.17 570.111,310.837 566.5,356.5C 566.358,359.617 565.024,362.117 562.5,364C 558.848,364.499 555.182,364.665 551.5,364.5C 546.26,363.551 540.927,363.218 535.5,363.5C 439.884,355.065 344.217,346.899 248.5,339C 243.543,338.113 240.877,335.113 240.5,330C 244.693,282.849 248.86,235.683 253,188.5C 254.076,185.921 255.909,184.254 258.5,183.5 Z"/></g>
<g><path style="opacity:0.952" fill="#cccccc" d="M 278.5,184.5 C 357.833,190.833 437.166,197.167 516.5,203.5C 517.274,207.049 518.607,210.382 520.5,213.5C 439.472,207.194 358.472,200.528 277.5,193.5C 278.299,190.57 278.632,187.57 278.5,184.5 Z"/></g>
<g><path style="opacity:1" fill="#fefefe" d="M 277.5,193.5 C 358.472,200.528 439.472,207.194 520.5,213.5C 523.889,215.22 527.556,215.887 531.5,215.5C 539.191,215.403 546.858,215.737 554.5,216.5C 555.167,216.5 555.833,216.5 556.5,216.5C 560.093,217.153 563.759,217.986 567.5,219C 568.131,220.906 568.464,222.906 568.5,225C 564.563,267.491 560.73,309.991 557,352.5C 554.959,353.752 552.625,354.419 550,354.5C 451.14,346.689 352.307,338.522 253.5,330C 252.667,329.167 251.833,328.333 251,327.5C 253.574,283.604 257.408,239.937 262.5,196.5C 268.27,199.468 273.27,198.468 277.5,193.5 Z"/></g>
<g><path style="opacity:1" fill="#94a856" d="M 190.5,208.5 C 188.74,205.299 187.906,201.633 188,197.5C 187.617,198.056 187.117,198.389 186.5,198.5C 187.072,196.745 187.906,195.078 189,193.5C 189.219,198.582 189.719,203.582 190.5,208.5 Z"/></g>
<g><path style="opacity:0.67" fill="#f2f2f2" d="M 709.5,195.5 C 718.563,194.566 723.896,198.566 725.5,207.5C 722.854,218.156 716.521,221.323 706.5,217C 700.884,211.914 700.051,206.081 704,199.5C 705.812,198.023 707.645,196.69 709.5,195.5 Z M 709.5,198.5 C 720.809,198.285 724.309,203.285 720,213.5C 713.838,218.134 708.838,217.134 705,210.5C 704.333,208.167 704.333,205.833 705,203.5C 706.366,201.638 707.866,199.972 709.5,198.5 Z"/></g>
<g><path style="opacity:0.981" fill="#2e2d41" d="M 190.5,208.5 C 204.83,209.237 219.163,209.903 233.5,210.5C 235.404,260.154 236.57,309.821 237,359.5C 235.644,360.38 234.144,360.714 232.5,360.5C 226.974,360.179 221.64,360.512 216.5,361.5C 214.007,361.671 212.174,360.671 211,358.5C 206.745,323.461 202.245,288.461 197.5,253.5C 196.914,253.709 196.414,254.043 196,254.5C 189.333,288.5 182.667,322.5 176,356.5C 175.292,357.381 174.458,358.047 173.5,358.5C 167.642,358.178 161.975,358.511 156.5,359.5C 154.771,358.883 153.271,357.883 152,356.5C 152.513,306.835 153.346,257.168 154.5,207.5C 163.77,207.453 173.103,207.119 182.5,206.5C 184.372,204.09 185.705,201.423 186.5,198.5C 187.117,198.389 187.617,198.056 188,197.5C 187.906,201.633 188.74,205.299 190.5,208.5 Z"/></g>
<g><path style="opacity:0.977" fill="#cccaca" d="M 539.5,205.5 C 542.391,206.403 545.391,206.736 548.5,206.5C 549.232,210.572 551.232,213.905 554.5,216.5C 546.858,215.737 539.191,215.403 531.5,215.5C 535.562,213.423 538.229,210.089 539.5,205.5 Z"/></g>
<g><path style="opacity:1" fill="#d1f064" d="M 467.5,229.5 C 471.167,229.5 474.833,229.5 478.5,229.5C 477.944,240.84 477.277,252.174 476.5,263.5C 474.097,263.607 472.264,262.607 471,260.5C 464.833,253 458.667,245.5 452.5,238C 456.978,234.098 461.978,231.265 467.5,229.5 Z"/></g>
<g><path style="opacity:1" fill="#413f58" d="M 481.5,230.5 C 497.797,232.293 508.63,240.96 514,256.5C 518.723,278.218 511.223,294.051 491.5,304C 486.344,305.962 481.011,306.795 475.5,306.5C 477.059,281.126 479.059,255.793 481.5,230.5 Z"/></g>
<g><path style="opacity:1" fill="#d0f066" d="M 357.5,238.5 C 360.891,246.133 358.224,249.133 349.5,247.5C 336.09,247.105 322.756,245.938 309.5,244C 305,239.172 306,236.005 312.5,234.5C 327.479,236.109 342.479,237.443 357.5,238.5 Z"/></g>
<g><path style="opacity:1" fill="#e4e6e2" d="M 357.5,238.5 C 364.134,239.397 370.801,240.231 377.5,241C 381.068,246.473 379.568,249.306 373,249.5C 365,248.987 357.167,248.321 349.5,247.5C 358.224,249.133 360.891,246.133 357.5,238.5 Z"/></g>
<g><path style="opacity:1" fill="#e6e6e6" d="M 449.5,240.5 C 451.716,241.203 453.549,242.536 455,244.5C 461.667,252.5 468.333,260.5 475,268.5C 474.28,281.142 473.447,293.809 472.5,306.5C 455.028,304.199 443.861,294.533 439,277.5C 435.949,263.168 439.449,250.835 449.5,240.5 Z"/></g>
<g><path style="opacity:0.681" fill="#f2f2f2" d="M 96.5,247.5 C 108.319,246.485 113.486,251.818 112,263.5C 108.677,269.908 103.511,272.075 96.5,270C 90.0919,266.677 87.9252,261.511 90,254.5C 91.6941,251.642 93.8607,249.309 96.5,247.5 Z M 99.5,249.5 C 105.484,249.984 109.151,253.151 110.5,259C 109.293,264.373 105.96,267.54 100.5,268.5C 88.9663,262.613 88.633,256.28 99.5,249.5 Z"/></g>
<g><path style="opacity:0.892" fill="#f2f2f2" d="M 50.5,257.5 C 59.3298,256.162 62.8298,259.829 61,268.5C 56.9968,273.42 52.6634,273.753 48,269.5C 45.6678,264.83 46.5011,260.83 50.5,257.5 Z"/></g>
<g><path style="opacity:1" fill="#cfef67" d="M 334.5,262.5 C 336.543,268.132 334.543,271.132 328.5,271.5C 321.127,271.292 313.794,270.625 306.5,269.5C 303.467,263.496 305.467,260.496 312.5,260.5C 319.819,261.387 327.153,262.054 334.5,262.5 Z"/></g>
<g><path style="opacity:1" fill="#e6e7e6" d="M 334.5,262.5 C 347.775,264.15 361.108,265.316 374.5,266C 379.545,272.548 377.879,275.715 369.5,275.5C 355.656,274.432 341.989,273.098 328.5,271.5C 334.543,271.132 336.543,268.132 334.5,262.5 Z"/></g>
<g><path style="opacity:0.809" fill="#f1f1f1" d="M 10.5,265.5 C 17.536,264.603 19.2027,267.103 15.5,273C 9.78826,273.433 8.1216,270.933 10.5,265.5 Z"/></g>
<g><path style="opacity:1" fill="#d0f066" d="M 304.5,286.5 C 325.184,287.729 345.851,289.229 366.5,291C 370.072,293.626 370.405,296.626 367.5,300C 346.788,299.663 326.122,298.33 305.5,296C 301.956,293.127 301.623,289.96 304.5,286.5 Z"/></g>
<g><path style="opacity:1" fill="#cff066" d="M 449.5,313.5 C 458.61,313.752 461.277,317.918 457.5,326C 448.956,329.322 445.123,326.489 446,317.5C 447.376,316.295 448.542,314.962 449.5,313.5 Z"/></g>
<g><path style="opacity:1" fill="#46445c" d="M 469.5,315.5 C 477.558,315.373 480.391,319.04 478,326.5C 473.615,330.756 469.615,330.423 466,325.5C 464.756,321.191 465.923,317.858 469.5,315.5 Z"/></g>
<g><path style="opacity:0.957" fill="#a06069" d="M 681.5,350.5 C 681.5,360.833 681.5,371.167 681.5,381.5C 676.833,381.5 672.167,381.5 667.5,381.5C 666.427,371.841 665.427,362.175 664.5,352.5C 669.929,350.988 675.596,350.321 681.5,350.5 Z"/></g>
<g><path style="opacity:0.934" fill="#fdb6b6" d="M 173.5,358.5 C 172.256,366.12 171.256,373.787 170.5,381.5C 165.833,381.5 161.167,381.5 156.5,381.5C 156.5,374.167 156.5,366.833 156.5,359.5C 161.975,358.511 167.642,358.178 173.5,358.5 Z"/></g>
<g><path style="opacity:0.932" fill="#fcb6b6" d="M 232.5,360.5 C 232.08,367.526 231.413,374.526 230.5,381.5C 225.833,381.5 221.167,381.5 216.5,381.5C 216.5,374.833 216.5,368.167 216.5,361.5C 221.64,360.512 226.974,360.179 232.5,360.5 Z"/></g>
<g><path style="opacity:0.968" fill="#9f616a" d="M 535.5,363.5 C 540.927,363.218 546.26,363.551 551.5,364.5C 549.636,370.093 547.97,375.759 546.5,381.5C 541.633,380.784 536.967,379.451 532.5,377.5C 533.5,372.833 534.5,368.167 535.5,363.5 Z"/></g>
<g><path style="opacity:0.95" fill="#2f2e41" d="M 532.5,377.5 C 536.967,379.451 541.633,380.784 546.5,381.5C 547.649,381.791 548.316,382.624 548.5,384C 547.418,387.828 546.418,391.661 545.5,395.5C 541.223,396.597 536.89,396.597 532.5,395.5C 523.82,392.076 514.82,389.409 505.5,387.5C 507.11,379.091 512.276,374.757 521,374.5C 525.008,374.96 528.841,375.96 532.5,377.5 Z"/></g>
<g><path style="opacity:0.964" fill="#323043" d="M 156.5,381.5 C 161.167,381.5 165.833,381.5 170.5,381.5C 176.434,380.889 182.1,381.722 187.5,384C 191.227,386.955 193.227,390.788 193.5,395.5C 180.167,396.833 166.833,396.833 153.5,395.5C 153.5,390.833 153.5,386.167 153.5,381.5C 154.5,381.5 155.5,381.5 156.5,381.5 Z"/></g>
<g><path style="opacity:0.964" fill="#323043" d="M 216.5,381.5 C 221.167,381.5 225.833,381.5 230.5,381.5C 236.434,380.889 242.1,381.722 247.5,384C 251.227,386.955 253.227,390.788 253.5,395.5C 240.167,396.833 226.833,396.833 213.5,395.5C 213.5,390.833 213.5,386.167 213.5,381.5C 214.5,381.5 215.5,381.5 216.5,381.5 Z"/></g>
<g><path style="opacity:0.965" fill="#323043" d="M 667.5,381.5 C 672.167,381.5 676.833,381.5 681.5,381.5C 682.5,381.5 683.5,381.5 684.5,381.5C 684.5,386.167 684.5,390.833 684.5,395.5C 671.167,396.833 657.833,396.833 644.5,395.5C 645.197,388.617 648.864,384.117 655.5,382C 659.486,381.501 663.486,381.334 667.5,381.5 Z"/></g>
<g><path style="opacity:0.688" fill="#cbcbcb" d="M -0.5,395.5 C 50.8333,395.5 102.167,395.5 153.5,395.5C 166.833,396.833 180.167,396.833 193.5,395.5C 200.167,395.5 206.833,395.5 213.5,395.5C 226.833,396.833 240.167,396.833 253.5,395.5C 346.5,395.5 439.5,395.5 532.5,395.5C 536.89,396.597 541.223,396.597 545.5,395.5C 578.5,395.5 611.5,395.5 644.5,395.5C 657.833,396.833 671.167,396.833 684.5,395.5C 720.167,395.5 755.833,395.5 791.5,395.5C 791.5,396.5 791.5,397.5 791.5,398.5C 527.5,398.5 263.5,398.5 -0.5,398.5C -0.5,397.5 -0.5,396.5 -0.5,395.5 Z"/></g>
</svg>
